# xmcd
#
# Track frame offsets:
#	150
#	9392
#	19381
#	29189
#	38942
#	53029
#	65527
#	77439
#	89212
#	101297
#	111538
#	124416
#	133102
#	142213
#	149292
#	156894
#	167349
#	177590
#	186646
#	200614
#	212477
#	223641
#	234370
#
# Disc length: 3247 seconds
#
# Revision: 1
# Processed by: cddbd v1.5.2PL0 Copyright (c) Steve Scherf et al.
# Submitted via: audiograbber 1.83.01
#
DISCID=620cad17
DTITLE=George Jones and The Jones Boys - Radio Jamboree
DYEAR=1963
DGENRE=Country
TTITLE0=Can't Get You Off My Mind
TTITLE1=World's Worst Loser
TTITLE2=Baby We're Really In Love
TTITLE3=I'll Be A Bachelor Till I Die
TTITLE4=Cold Cold Heart
TTITLE5=House of Gold
TTITLE6=Howlin at the Moon
TTITLE7=I Can't Change Overnight
TTITLE8=I Could Never Be Ashamed of You
TTITLE9=I Don't Care (If Tomorrow Never Comes)
TTITLE10=I Just Don't Like This Kind Of Livin'
TTITLE11=Yes I Know Why
TTITLE12=You Gotta Be My Baby
TTITLE13=Imitation of Love
TTITLE14=Just One More
TTITLE15=Let's Turn Back The Years
TTITLE16=I'm A Long Gone Daddy
TTITLE17=Never Again (Will I Knock On Your Door)
TTITLE18=Open Pit Mine
TTITLE19=Something I Dreamed
TTITLE20=I'd Still Want You
TTITLE21=I'm Gonna Sing, Sing, Sing
TTITLE22=I Can't Help It (If I'm Still In Love With You)
EXTD=
EXTT0=
EXTT1=
EXTT2=
EXTT3=
EXTT4=
EXTT5=
EXTT6=
EXTT7=
EXTT8=
EXTT9=
EXTT10=
EXTT11=
EXTT12=
EXTT13=
EXTT14=
EXTT15=
EXTT16=
EXTT17=
EXTT18=
EXTT19=
EXTT20=
EXTT21=
EXTT22=
PLAYORDER=
